<svg width="424" height="30" viewBox="0 0 424 30" fill="none" xmlns="http://www.w3.org/2000/svg">
<path d="M18.76 23.32H7.12L5.12 29H0.36L10.32 1.16H15.6L25.56 29H20.76L18.76 23.32ZM17.48 19.6L12.96 6.68L8.4 19.6H17.48ZM44.7706 14.72C46.264 14.9867 47.5306 15.7733 48.5706 17.08C49.6106 18.3867 50.1306 19.8667 50.1306 21.52C50.1306 22.9333 49.7573 24.2133 49.0106 25.36C48.2906 26.48 47.2373 27.3733 45.8506 28.04C44.464 28.68 42.8506 29 41.0106 29H29.8906V1.2H40.4906C42.384 1.2 44.0106 1.52 45.3706 2.16C46.7306 2.8 47.7573 3.66667 48.4506 4.76C49.144 5.82667 49.4906 7.02667 49.4906 8.36C49.4906 9.96 49.064 11.2933 48.2106 12.36C47.3573 13.4267 46.2106 14.2133 44.7706 14.72ZM34.4506 12.88H40.0906C41.584 12.88 42.744 12.5467 43.5706 11.88C44.424 11.1867 44.8506 10.2 44.8506 8.92C44.8506 7.66667 44.424 6.69333 43.5706 6C42.744 5.28 41.584 4.92 40.0906 4.92H34.4506V12.88ZM40.6106 25.28C42.1573 25.28 43.3706 24.9067 44.2506 24.16C45.1306 23.4133 45.5706 22.3733 45.5706 21.04C45.5706 19.68 45.104 18.6 44.1706 17.8C43.2373 17 41.9973 16.6 40.4506 16.6H34.4506V25.28H40.6106ZM67.7659 29.28C65.1793 29.28 62.7926 28.68 60.6059 27.48C58.4459 26.2533 56.7259 24.56 55.4459 22.4C54.1926 20.2133 53.5659 17.76 53.5659 15.04C53.5659 12.32 54.1926 9.88 55.4459 7.72C56.7259 5.56 58.4459 3.88 60.6059 2.68C62.7926 1.45333 65.1793 0.839998 67.7659 0.839998C70.3793 0.839998 72.7659 1.45333 74.9259 2.68C77.1126 3.88 78.8326 5.56 80.0859 7.72C81.3393 9.88 81.9659 12.32 81.9659 15.04C81.9659 17.76 81.3393 20.2133 80.0859 22.4C78.8326 24.56 77.1126 26.2533 74.9259 27.48C72.7659 28.68 70.3793 29.28 67.7659 29.28ZM67.7659 25.32C69.6059 25.32 71.2459 24.9067 72.6859 24.08C74.1259 23.2267 75.2459 22.0267 76.0459 20.48C76.8726 18.9067 77.2859 17.0933 77.2859 15.04C77.2859 12.9867 76.8726 11.1867 76.0459 9.64C75.2459 8.09333 74.1259 6.90667 72.6859 6.08C71.2459 5.25333 69.6059 4.84 67.7659 4.84C65.9259 4.84 64.2859 5.25333 62.8459 6.08C61.4059 6.90667 60.2726 8.09333 59.4459 9.64C58.6459 11.1867 58.2459 12.9867 58.2459 15.04C58.2459 17.0933 58.6459 18.9067 59.4459 20.48C60.2726 22.0267 61.4059 23.2267 62.8459 24.08C64.2859 24.9067 65.9259 25.32 67.7659 25.32ZM90.9731 1.2V18.92C90.9731 21.0267 91.5198 22.6133 92.6131 23.68C93.7331 24.7467 95.2798 25.28 97.2531 25.28C99.2531 25.28 100.8 24.7467 101.893 23.68C103.013 22.6133 103.573 21.0267 103.573 18.92V1.2H108.133V18.84C108.133 21.1067 107.64 23.0267 106.653 24.6C105.666 26.1733 104.346 27.3467 102.693 28.12C101.04 28.8933 99.2131 29.28 97.2131 29.28C95.2131 29.28 93.3865 28.8933 91.7331 28.12C90.1065 27.3467 88.8131 26.1733 87.8531 24.6C86.8931 23.0267 86.4131 21.1067 86.4131 18.84V1.2H90.9731ZM132.03 1.2V4.92H124.63V29H120.07V4.92H112.63V1.2H132.03ZM169.879 29H165.319L151.599 8.24V29H147.039V1.16H151.599L165.319 21.88V1.16H169.879V29Z" fill="#E5E5E5"/>
<path d="M188.547 29.28C185.961 29.28 183.574 28.68 181.387 27.48C179.227 26.2533 177.507 24.56 176.227 22.4C174.974 20.2133 174.347 17.76 174.347 15.04C174.347 12.32 174.974 9.88 176.227 7.72C177.507 5.56 179.227 3.88 181.387 2.68C183.574 1.45333 185.961 0.839998 188.547 0.839998C191.161 0.839998 193.547 1.45333 195.707 2.68C197.894 3.88 199.614 5.56 200.867 7.72C202.121 9.88 202.747 12.32 202.747 15.04C202.747 17.76 202.121 20.2133 200.867 22.4C199.614 24.56 197.894 26.2533 195.707 27.48C193.547 28.68 191.161 29.28 188.547 29.28ZM188.547 25.32C190.387 25.32 192.027 24.9067 193.467 24.08C194.907 23.2267 196.027 22.0267 196.827 20.48C197.654 18.9067 198.067 17.0933 198.067 15.04C198.067 12.9867 197.654 11.1867 196.827 9.64C196.027 8.09333 194.907 6.90667 193.467 6.08C192.027 5.25333 190.387 4.84 188.547 4.84C186.707 4.84 185.067 5.25333 183.627 6.08C182.187 6.90667 181.054 8.09333 180.227 9.64C179.427 11.1867 179.027 12.9867 179.027 15.04C179.027 17.0933 179.427 18.9067 180.227 20.48C181.054 22.0267 182.187 23.2267 183.627 24.08C185.067 24.9067 186.707 25.32 188.547 25.32Z" fill="black"/>
<path d="M221.674 29L215.274 17.88H211.794V29H207.234V1.2H216.834C218.968 1.2 220.768 1.57333 222.234 2.32C223.728 3.06666 224.834 4.06667 225.554 5.32C226.301 6.57333 226.674 7.97333 226.674 9.52C226.674 11.3333 226.141 12.9867 225.074 14.48C224.034 15.9467 222.421 16.9467 220.234 17.48L227.114 29H221.674ZM211.794 14.24H216.834C218.541 14.24 219.821 13.8133 220.674 12.96C221.554 12.1067 221.994 10.96 221.994 9.52C221.994 8.08 221.568 6.96 220.714 6.16C219.861 5.33333 218.568 4.92 216.834 4.92H211.794V14.24ZM257.338 29L250.938 17.88H247.458V29H242.898V1.2H252.498C254.632 1.2 256.432 1.57333 257.898 2.32C259.392 3.06666 260.498 4.06667 261.218 5.32C261.965 6.57333 262.338 7.97333 262.338 9.52C262.338 11.3333 261.805 12.9867 260.738 14.48C259.698 15.9467 258.085 16.9467 255.898 17.48L262.778 29H257.338ZM247.458 14.24H252.498C254.205 14.24 255.485 13.8133 256.338 12.96C257.218 12.1067 257.658 10.96 257.658 9.52C257.658 8.08 257.232 6.96 256.378 6.16C255.525 5.33333 254.232 4.92 252.498 4.92H247.458V14.24ZM272.732 4.88V13.04H282.332V16.76H272.732V25.28H283.532V29H268.172V1.16H283.532V4.88H272.732ZM287.628 15.04C287.628 12.32 288.255 9.88 289.508 7.72C290.788 5.56 292.508 3.88 294.668 2.68C296.855 1.45333 299.242 0.839998 301.828 0.839998C304.788 0.839998 307.415 1.57333 309.708 3.04C312.028 4.48 313.708 6.53333 314.748 9.2H309.268C308.548 7.73333 307.548 6.64 306.268 5.92C304.988 5.2 303.508 4.84 301.828 4.84C299.988 4.84 298.348 5.25333 296.908 6.08C295.468 6.90667 294.335 8.09333 293.508 9.64C292.708 11.1867 292.308 12.9867 292.308 15.04C292.308 17.0933 292.708 18.8933 293.508 20.44C294.335 21.9867 295.468 23.1867 296.908 24.04C298.348 24.8667 299.988 25.28 301.828 25.28C303.508 25.28 304.988 24.92 306.268 24.2C307.548 23.48 308.548 22.3867 309.268 20.92H314.748C313.708 23.5867 312.028 25.64 309.708 27.08C307.415 28.52 304.788 29.24 301.828 29.24C299.215 29.24 296.828 28.64 294.668 27.44C292.508 26.2133 290.788 24.52 289.508 22.36C288.255 20.2 287.628 17.76 287.628 15.04ZM332.766 29.28C330.179 29.28 327.793 28.68 325.606 27.48C323.446 26.2533 321.726 24.56 320.446 22.4C319.193 20.2133 318.566 17.76 318.566 15.04C318.566 12.32 319.193 9.88 320.446 7.72C321.726 5.56 323.446 3.88 325.606 2.68C327.793 1.45333 330.179 0.839998 332.766 0.839998C335.379 0.839998 337.766 1.45333 339.926 2.68C342.113 3.88 343.833 5.56 345.086 7.72C346.339 9.88 346.966 12.32 346.966 15.04C346.966 17.76 346.339 20.2133 345.086 22.4C343.833 24.56 342.113 26.2533 339.926 27.48C337.766 28.68 335.379 29.28 332.766 29.28ZM332.766 25.32C334.606 25.32 336.246 24.9067 337.686 24.08C339.126 23.2267 340.246 22.0267 341.046 20.48C341.873 18.9067 342.286 17.0933 342.286 15.04C342.286 12.9867 341.873 11.1867 341.046 9.64C340.246 8.09333 339.126 6.90667 337.686 6.08C336.246 5.25333 334.606 4.84 332.766 4.84C330.926 4.84 329.286 5.25333 327.846 6.08C326.406 6.90667 325.273 8.09333 324.446 9.64C323.646 11.1867 323.246 12.9867 323.246 15.04C323.246 17.0933 323.646 18.9067 324.446 20.48C325.273 22.0267 326.406 23.2267 327.846 24.08C329.286 24.9067 330.926 25.32 332.766 25.32ZM365.893 29L359.493 17.88H356.013V29H351.453V1.2H361.053C363.186 1.2 364.986 1.57333 366.453 2.32C367.946 3.06666 369.053 4.06667 369.773 5.32C370.52 6.57333 370.893 7.97333 370.893 9.52C370.893 11.3333 370.36 12.9867 369.293 14.48C368.253 15.9467 366.64 16.9467 364.453 17.48L371.333 29H365.893ZM356.013 14.24H361.053C362.76 14.24 364.04 13.8133 364.893 12.96C365.773 12.1067 366.213 10.96 366.213 9.52C366.213 8.08 365.786 6.96 364.933 6.16C364.08 5.33333 362.786 4.92 361.053 4.92H356.013V14.24ZM385.807 1.2C388.767 1.2 391.353 1.77333 393.567 2.92C395.807 4.04 397.527 5.66667 398.727 7.8C399.953 9.90667 400.567 12.3733 400.567 15.2C400.567 18.0267 399.953 20.48 398.727 22.56C397.527 24.64 395.807 26.24 393.567 27.36C391.353 28.4533 388.767 29 385.807 29H376.727V1.2H385.807ZM385.807 25.28C389.06 25.28 391.553 24.4 393.287 22.64C395.02 20.88 395.887 18.4 395.887 15.2C395.887 11.9733 395.02 9.45333 393.287 7.64C391.553 5.82666 389.06 4.92 385.807 4.92H381.287V25.28H385.807ZM414.246 29.28C412.379 29.28 410.699 28.96 409.206 28.32C407.713 27.6533 406.539 26.72 405.686 25.52C404.833 24.32 404.406 22.92 404.406 21.32H409.286C409.393 22.52 409.859 23.5067 410.686 24.28C411.539 25.0533 412.726 25.44 414.246 25.44C415.819 25.44 417.046 25.0667 417.926 24.32C418.806 23.5467 419.246 22.56 419.246 21.36C419.246 20.4267 418.966 19.6667 418.406 19.08C417.873 18.4933 417.193 18.04 416.366 17.72C415.566 17.4 414.446 17.0533 413.006 16.68C411.193 16.2 409.713 15.72 408.566 15.24C407.446 14.7333 406.486 13.96 405.686 12.92C404.886 11.88 404.486 10.4933 404.486 8.76C404.486 7.16 404.886 5.76 405.686 4.56C406.486 3.36 407.606 2.44 409.046 1.8C410.486 1.16 412.153 0.839998 414.046 0.839998C416.739 0.839998 418.939 1.52 420.646 2.88C422.379 4.21333 423.339 6.05333 423.526 8.4H418.486C418.406 7.38667 417.926 6.52 417.046 5.8C416.166 5.08 415.006 4.72 413.566 4.72C412.259 4.72 411.193 5.05333 410.366 5.72C409.539 6.38667 409.126 7.34666 409.126 8.6C409.126 9.45333 409.379 10.16 409.886 10.72C410.419 11.2533 411.086 11.68 411.886 12C412.686 12.32 413.779 12.6667 415.166 13.04C417.006 13.5467 418.499 14.0533 419.646 14.56C420.819 15.0667 421.806 15.8533 422.606 16.92C423.433 17.96 423.846 19.36 423.846 21.12C423.846 22.5333 423.459 23.8667 422.686 25.12C421.939 26.3733 420.833 27.3867 419.366 28.16C417.926 28.9067 416.219 29.28 414.246 29.28Z" fill="#FDCBCA"/>
</svg>
