<svg width="30" height="30" viewBox="0 0 30 30" fill="none" xmlns="http://www.w3.org/2000/svg">
<path d="M21.0628 0H8.93716C4.00919 0 0 4.00919 0 8.93716V21.0628C0 25.9908 4.00919 30 8.93716 30H21.0628C25.9908 30 30 25.9908 30 21.0628V8.93716C29.9999 4.00919 25.9908 0 21.0628 0ZM26.982 21.0628C26.982 24.3319 24.3319 26.982 21.0628 26.982H8.93716C5.66813 26.982 3.018 24.3319 3.018 21.0628V8.93716C3.018 5.66807 5.66813 3.018 8.93716 3.018H21.0628C24.3319 3.018 26.982 5.66807 26.982 8.93716V21.0628Z" fill="#4C4C4C"/>
<path d="M15 7.24093C10.7216 7.24093 7.24091 10.7216 7.24091 14.9999C7.24091 19.2782 10.7216 22.759 15 22.759C19.2783 22.759 22.759 19.2783 22.759 14.9999C22.759 10.7216 19.2783 7.24093 15 7.24093ZM15 19.7411C12.3815 19.7411 10.2589 17.6184 10.2589 15C10.2589 12.3816 12.3816 10.2589 15 10.2589C17.6184 10.2589 19.741 12.3816 19.741 15C19.741 17.6184 17.6184 19.7411 15 19.7411Z" fill="#4C4C4C"/>
<path d="M22.7741 9.15843C23.8009 9.15843 24.6333 8.32602 24.6333 7.2992C24.6333 6.27237 23.8009 5.43996 22.7741 5.43996C21.7473 5.43996 20.9149 6.27237 20.9149 7.2992C20.9149 8.32602 21.7473 9.15843 22.7741 9.15843Z" fill="#4C4C4C"/>
</svg>
