<svg width="200" height="200" viewBox="0 0 200 200" fill="none" xmlns="http://www.w3.org/2000/svg">
<path d="M200 100C200 119.778 194.135 139.112 183.147 155.557C172.159 172.002 156.541 184.819 138.268 192.388C119.996 199.957 99.8891 201.937 80.491 198.079C61.0929 194.22 43.2746 184.696 29.2893 170.711C15.3041 156.725 5.77999 138.907 1.92147 119.509C-1.93705 100.111 0.0432836 80.0043 7.61205 61.7317C15.1808 43.459 27.9981 27.8412 44.443 16.853C60.8879 5.8649 80.2219 -2.35852e-07 100 0V18.0113C83.7842 18.0113 67.9325 22.8199 54.4495 31.8289C40.9666 40.8379 30.4579 53.6428 24.2523 68.6243C18.0468 83.6058 16.4232 100.091 19.5867 115.995C22.7503 131.899 30.5589 146.508 42.0252 157.975C53.4916 169.441 68.1006 177.25 84.0048 180.413C99.909 183.577 116.394 181.953 131.376 175.748C146.357 169.542 159.162 159.033 168.171 145.55C177.18 132.068 181.989 116.216 181.989 100H200Z" fill="#C4C4C4" fill-opacity="0.15"/>
</svg>
