<svg width="361" height="417" viewBox="0 0 361 417" fill="none" xmlns="http://www.w3.org/2000/svg">
<rect x="4.5" y="61.5" width="291" height="351" rx="5.5" fill="white" stroke="#FDCBCA" stroke-width="9"/>
<path d="M361 150C361 179.667 352.203 208.668 335.72 233.336C319.238 258.003 295.811 277.229 268.403 288.582C240.994 299.935 210.834 302.906 181.736 297.118C152.639 291.33 125.912 277.044 104.934 256.066C83.9561 235.088 69.67 208.361 63.8822 179.264C58.0944 150.166 61.0649 120.006 72.4181 92.5975C83.7712 65.1886 102.997 41.7618 127.664 25.2796C152.332 8.79735 181.333 -3.53778e-07 211 0V27.017C186.676 27.017 162.899 34.2298 142.674 47.7434C122.45 61.2569 106.687 80.4642 97.3785 102.936C88.0702 125.409 85.6347 150.136 90.3801 173.993C95.1254 197.849 106.838 219.763 124.038 236.962C141.237 254.162 163.151 265.875 187.007 270.62C210.864 275.365 235.591 272.93 258.064 263.621C280.536 254.313 299.743 238.55 313.257 218.326C326.77 198.101 333.983 174.324 333.983 150H361Z" fill="#C4C4C4"/>
</svg>
