<svg width="300" height="300" viewBox="0 0 300 300" fill="none" xmlns="http://www.w3.org/2000/svg">
<path d="M80.77 164H75.127L65.689 149.711V164H60.046V140.834H65.689L75.127 155.189V140.834H80.77V164ZM93.2425 164.264C91.4385 164.264 89.8105 163.879 88.3585 163.109C86.9285 162.339 85.7955 161.239 84.9595 159.809C84.1455 158.379 83.7385 156.707 83.7385 154.793C83.7385 152.901 84.1565 151.24 84.9925 149.81C85.8285 148.358 86.9725 147.247 88.4245 146.477C89.8765 145.707 91.5045 145.322 93.3085 145.322C95.1125 145.322 96.7405 145.707 98.1925 146.477C99.6445 147.247 100.788 148.358 101.624 149.81C102.46 151.24 102.878 152.901 102.878 154.793C102.878 156.685 102.449 158.357 101.591 159.809C100.755 161.239 99.6005 162.339 98.1265 163.109C96.6745 163.879 95.0465 164.264 93.2425 164.264ZM93.2425 159.38C94.3205 159.38 95.2335 158.984 95.9815 158.192C96.7515 157.4 97.1365 156.267 97.1365 154.793C97.1365 153.319 96.7625 152.186 96.0145 151.394C95.2885 150.602 94.3865 150.206 93.3085 150.206C92.2085 150.206 91.2955 150.602 90.5695 151.394C89.8435 152.164 89.4805 153.297 89.4805 154.793C89.4805 156.267 89.8325 157.4 90.5365 158.192C91.2625 158.984 92.1645 159.38 93.2425 159.38ZM111.515 148.655C112.175 147.643 113 146.851 113.99 146.279C114.98 145.685 116.08 145.388 117.29 145.388V151.361H115.739C114.331 151.361 113.275 151.669 112.571 152.285C111.867 152.879 111.515 153.935 111.515 155.453V164H105.872V145.586H111.515V148.655Z" fill="#F8BBB8"/>
<path d="M139.323 164L134.043 154.826H131.172V164H127.41V141.065H135.33C137.09 141.065 138.575 141.373 139.785 141.989C141.017 142.605 141.93 143.43 142.524 144.464C143.14 145.498 143.448 146.653 143.448 147.929C143.448 149.425 143.008 150.789 142.128 152.021C141.27 153.231 139.939 154.056 138.135 154.496L143.811 164H139.323ZM131.172 151.823H135.33C136.738 151.823 137.794 151.471 138.498 150.767C139.224 150.063 139.587 149.117 139.587 147.929C139.587 146.741 139.235 145.817 138.531 145.157C137.827 144.475 136.76 144.134 135.33 144.134H131.172V151.823ZM164.925 154.463C164.925 155.145 164.881 155.761 164.793 156.311H150.9C151.01 157.763 151.549 158.929 152.517 159.809C153.485 160.689 154.673 161.129 156.081 161.129C158.105 161.129 159.535 160.282 160.371 158.588H164.43C163.88 160.26 162.879 161.635 161.427 162.713C159.997 163.769 158.215 164.297 156.081 164.297C154.343 164.297 152.781 163.912 151.395 163.142C150.031 162.35 148.953 161.25 148.161 159.842C147.391 158.412 147.006 156.762 147.006 154.892C147.006 153.022 147.38 151.383 148.128 149.975C148.898 148.545 149.965 147.445 151.329 146.675C152.715 145.905 154.299 145.52 156.081 145.52C157.797 145.52 159.326 145.894 160.668 146.642C162.01 147.39 163.055 148.446 163.803 149.81C164.551 151.152 164.925 152.703 164.925 154.463ZM160.998 153.275C160.976 151.889 160.481 150.778 159.513 149.942C158.545 149.106 157.346 148.688 155.916 148.688C154.618 148.688 153.507 149.106 152.583 149.942C151.659 150.756 151.109 151.867 150.933 153.275H160.998ZM167.373 154.892C167.373 153.022 167.747 151.383 168.495 149.975C169.265 148.545 170.321 147.445 171.663 146.675C173.005 145.905 174.545 145.52 176.283 145.52C178.483 145.52 180.298 146.048 181.728 147.104C183.18 148.138 184.159 149.623 184.665 151.559H180.606C180.276 150.657 179.748 149.953 179.022 149.447C178.296 148.941 177.383 148.688 176.283 148.688C174.743 148.688 173.511 149.238 172.587 150.338C171.685 151.416 171.234 152.934 171.234 154.892C171.234 156.85 171.685 158.379 172.587 159.479C173.511 160.579 174.743 161.129 176.283 161.129C178.461 161.129 179.902 160.172 180.606 158.258H184.665C184.137 160.106 183.147 161.58 181.695 162.68C180.243 163.758 178.439 164.297 176.283 164.297C174.545 164.297 173.005 163.912 171.663 163.142C170.321 162.35 169.265 161.25 168.495 159.842C167.747 158.412 167.373 156.762 167.373 154.892ZM196.301 164.297C194.585 164.297 193.034 163.912 191.648 163.142C190.262 162.35 189.173 161.25 188.381 159.842C187.589 158.412 187.193 156.762 187.193 154.892C187.193 153.044 187.6 151.405 188.414 149.975C189.228 148.545 190.339 147.445 191.747 146.675C193.155 145.905 194.728 145.52 196.466 145.52C198.204 145.52 199.777 145.905 201.185 146.675C202.593 147.445 203.704 148.545 204.518 149.975C205.332 151.405 205.739 153.044 205.739 154.892C205.739 156.74 205.321 158.379 204.485 159.809C203.649 161.239 202.505 162.35 201.053 163.142C199.623 163.912 198.039 164.297 196.301 164.297ZM196.301 161.03C197.269 161.03 198.171 160.799 199.007 160.337C199.865 159.875 200.558 159.182 201.086 158.258C201.614 157.334 201.878 156.212 201.878 154.892C201.878 153.572 201.625 152.461 201.119 151.559C200.613 150.635 199.942 149.942 199.106 149.48C198.27 149.018 197.368 148.787 196.4 148.787C195.432 148.787 194.53 149.018 193.694 149.48C192.88 149.942 192.231 150.635 191.747 151.559C191.263 152.461 191.021 153.572 191.021 154.892C191.021 156.85 191.516 158.368 192.506 159.446C193.518 160.502 194.783 161.03 196.301 161.03ZM213.22 148.457C213.77 147.533 214.496 146.818 215.398 146.312C216.322 145.784 217.411 145.52 218.665 145.52V149.414H217.708C216.234 149.414 215.112 149.788 214.342 150.536C213.594 151.284 213.22 152.582 213.22 154.43V164H209.458V145.817H213.22V148.457ZM220.869 154.826C220.869 153 221.243 151.383 221.991 149.975C222.761 148.567 223.795 147.478 225.093 146.708C226.413 145.916 227.876 145.52 229.482 145.52C230.67 145.52 231.836 145.784 232.98 146.312C234.146 146.818 235.07 147.5 235.752 148.358V139.58H239.547V164H235.752V161.261C235.136 162.141 234.278 162.867 233.178 163.439C232.1 164.011 230.857 164.297 229.449 164.297C227.865 164.297 226.413 163.901 225.093 163.109C223.795 162.295 222.761 161.173 221.991 159.743C221.243 158.291 220.869 156.652 220.869 154.826ZM235.752 154.892C235.752 153.638 235.488 152.549 234.96 151.625C234.454 150.701 233.783 149.997 232.947 149.513C232.111 149.029 231.209 148.787 230.241 148.787C229.273 148.787 228.371 149.029 227.535 149.513C226.699 149.975 226.017 150.668 225.489 151.592C224.983 152.494 224.73 153.572 224.73 154.826C224.73 156.08 224.983 157.18 225.489 158.126C226.017 159.072 226.699 159.798 227.535 160.304C228.393 160.788 229.295 161.03 230.241 161.03C231.209 161.03 232.111 160.788 232.947 160.304C233.783 159.82 234.454 159.116 234.96 158.192C235.488 157.246 235.752 156.146 235.752 154.892ZM251.089 164.297C249.659 164.297 248.372 164.044 247.228 163.538C246.106 163.01 245.215 162.306 244.555 161.426C243.895 160.524 243.543 159.523 243.499 158.423H247.393C247.459 159.193 247.822 159.842 248.482 160.37C249.164 160.876 250.011 161.129 251.023 161.129C252.079 161.129 252.893 160.931 253.465 160.535C254.059 160.117 254.356 159.589 254.356 158.951C254.356 158.269 254.026 157.763 253.366 157.433C252.728 157.103 251.705 156.74 250.297 156.344C248.933 155.97 247.822 155.607 246.964 155.255C246.106 154.903 245.358 154.364 244.72 153.638C244.104 152.912 243.796 151.955 243.796 150.767C243.796 149.799 244.082 148.919 244.654 148.127C245.226 147.313 246.04 146.675 247.096 146.213C248.174 145.751 249.406 145.52 250.792 145.52C252.86 145.52 254.521 146.048 255.775 147.104C257.051 148.138 257.733 149.557 257.821 151.361H254.059C253.993 150.547 253.663 149.898 253.069 149.414C252.475 148.93 251.672 148.688 250.66 148.688C249.67 148.688 248.911 148.875 248.383 149.249C247.855 149.623 247.591 150.118 247.591 150.734C247.591 151.218 247.767 151.625 248.119 151.955C248.471 152.285 248.9 152.549 249.406 152.747C249.912 152.923 250.66 153.154 251.65 153.44C252.97 153.792 254.048 154.155 254.884 154.529C255.742 154.881 256.479 155.409 257.095 156.113C257.711 156.817 258.03 157.752 258.052 158.918C258.052 159.952 257.766 160.876 257.194 161.69C256.622 162.504 255.808 163.142 254.752 163.604C253.718 164.066 252.497 164.297 251.089 164.297Z" fill="black"/>
<path d="M300 150C300 179.667 291.203 208.668 274.72 233.336C258.238 258.003 234.811 277.229 207.403 288.582C179.994 299.935 149.834 302.906 120.736 297.118C91.6393 291.33 64.9119 277.044 43.934 256.066C22.9561 235.088 8.66999 208.361 2.88221 179.264C-2.90558 150.166 0.0649254 120.006 11.4181 92.5975C22.7712 65.1886 41.9971 41.7618 66.6645 25.2796C91.3318 8.79735 120.333 -3.53778e-07 150 0V27.017C125.676 27.017 101.899 34.2298 81.6743 47.7434C61.4498 61.2569 45.6868 80.4642 36.3785 102.936C27.0702 125.409 24.6347 150.136 29.3801 173.993C34.1254 197.849 45.8384 219.763 63.0379 236.962C80.2374 254.162 102.151 265.875 126.007 270.62C149.864 275.365 174.591 272.93 197.064 263.621C219.536 254.313 238.743 238.55 252.257 218.326C265.77 198.101 272.983 174.324 272.983 150H300Z" fill="#C4C4C4"/>
</svg>
