<svg width="357" height="30" viewBox="0 0 357 30" fill="none" xmlns="http://www.w3.org/2000/svg">
<path d="M14.44 29L8.04 17.88H4.56V29H1.19209e-07V1.2H9.6C11.7333 1.2 13.5333 1.57333 15 2.32C16.4933 3.06666 17.6 4.06667 18.32 5.32C19.0667 6.57333 19.44 7.97333 19.44 9.52C19.44 11.3333 18.9067 12.9867 17.84 14.48C16.8 15.9467 15.1867 16.9467 13 17.48L19.88 29H14.44ZM4.56 14.24H9.6C11.3067 14.24 12.5867 13.8133 13.44 12.96C14.32 12.1067 14.76 10.96 14.76 9.52C14.76 8.08 14.3333 6.96 13.48 6.16C12.6267 5.33333 11.3333 4.92 9.6 4.92H4.56V14.24ZM29.8334 4.88V13.04H39.4334V16.76H29.8334V25.28H40.6334V29H25.2734V1.16H40.6334V4.88H29.8334ZM81.7475 4.88V13.04H91.3475V16.76H81.7475V25.28H92.5475V29H77.1875V1.16H92.5475V4.88H81.7475ZM121.004 29H116.444L102.724 8.24V29H98.1641V1.16H102.724L116.444 21.88V1.16H121.004V29ZM144.952 1.2V4.92H137.552V29H132.992V4.92H125.552V1.2H144.952ZM179.401 9.48C179.401 10.8933 179.068 12.2267 178.401 13.48C177.734 14.7333 176.668 15.76 175.201 16.56C173.734 17.3333 171.854 17.72 169.561 17.72H164.521V29H159.961V1.2H169.561C171.694 1.2 173.494 1.57333 174.961 2.32C176.454 3.04 177.561 4.02666 178.281 5.28C179.028 6.53333 179.401 7.93333 179.401 9.48ZM169.561 14C171.294 14 172.588 13.6133 173.441 12.84C174.294 12.04 174.721 10.92 174.721 9.48C174.721 6.44 173.001 4.92 169.561 4.92H164.521V14H169.561ZM198.19 29L191.79 17.88H188.31V29H183.75V1.2H193.35C195.483 1.2 197.283 1.57333 198.75 2.32C200.243 3.06666 201.35 4.06667 202.07 5.32C202.817 6.57333 203.19 7.97333 203.19 9.52C203.19 11.3333 202.657 12.9867 201.59 14.48C200.55 15.9467 198.937 16.9467 196.75 17.48L203.63 29H198.19ZM188.31 14.24H193.35C195.057 14.24 196.337 13.8133 197.19 12.96C198.07 12.1067 198.51 10.96 198.51 9.52C198.51 8.08 198.083 6.96 197.23 6.16C196.377 5.33333 195.083 4.92 193.35 4.92H188.31V14.24ZM221.703 29.28C219.117 29.28 216.73 28.68 214.543 27.48C212.383 26.2533 210.663 24.56 209.383 22.4C208.13 20.2133 207.503 17.76 207.503 15.04C207.503 12.32 208.13 9.88 209.383 7.72C210.663 5.56 212.383 3.88 214.543 2.68C216.73 1.45333 219.117 0.839998 221.703 0.839998C224.317 0.839998 226.703 1.45333 228.863 2.68C231.05 3.88 232.77 5.56 234.023 7.72C235.277 9.88 235.903 12.32 235.903 15.04C235.903 17.76 235.277 20.2133 234.023 22.4C232.77 24.56 231.05 26.2533 228.863 27.48C226.703 28.68 224.317 29.28 221.703 29.28ZM221.703 25.32C223.543 25.32 225.183 24.9067 226.623 24.08C228.063 23.2267 229.183 22.0267 229.983 20.48C230.81 18.9067 231.223 17.0933 231.223 15.04C231.223 12.9867 230.81 11.1867 229.983 9.64C229.183 8.09333 228.063 6.90667 226.623 6.08C225.183 5.25333 223.543 4.84 221.703 4.84C219.863 4.84 218.223 5.25333 216.783 6.08C215.343 6.90667 214.21 8.09333 213.383 9.64C212.583 11.1867 212.183 12.9867 212.183 15.04C212.183 17.0933 212.583 18.9067 213.383 20.48C214.21 22.0267 215.343 23.2267 216.783 24.08C218.223 24.9067 219.863 25.32 221.703 25.32ZM267.529 4.88V13.04H277.129V16.76H267.529V25.28H278.329V29H262.969V1.16H278.329V4.88H267.529ZM282.425 15.04C282.425 12.32 283.052 9.88 284.305 7.72C285.585 5.56 287.305 3.88 289.465 2.68C291.652 1.45333 294.039 0.839998 296.625 0.839998C299.585 0.839998 302.212 1.57333 304.505 3.04C306.825 4.48 308.505 6.53333 309.545 9.2H304.065C303.345 7.73333 302.345 6.64 301.065 5.92C299.785 5.2 298.305 4.84 296.625 4.84C294.785 4.84 293.145 5.25333 291.705 6.08C290.265 6.90667 289.132 8.09333 288.305 9.64C287.505 11.1867 287.105 12.9867 287.105 15.04C287.105 17.0933 287.505 18.8933 288.305 20.44C289.132 21.9867 290.265 23.1867 291.705 24.04C293.145 24.8667 294.785 25.28 296.625 25.28C298.305 25.28 299.785 24.92 301.065 24.2C302.345 23.48 303.345 22.3867 304.065 20.92H309.545C308.505 23.5867 306.825 25.64 304.505 27.08C302.212 28.52 299.585 29.24 296.625 29.24C294.012 29.24 291.625 28.64 289.465 27.44C287.305 26.2133 285.585 24.52 284.305 22.36C283.052 20.2 282.425 17.76 282.425 15.04ZM332.843 1.2V4.92H325.443V29H320.883V4.92H313.443V1.2H332.843ZM346.621 29.28C344.754 29.28 343.074 28.96 341.581 28.32C340.088 27.6533 338.914 26.72 338.061 25.52C337.208 24.32 336.781 22.92 336.781 21.32H341.661C341.768 22.52 342.234 23.5067 343.061 24.28C343.914 25.0533 345.101 25.44 346.621 25.44C348.194 25.44 349.421 25.0667 350.301 24.32C351.181 23.5467 351.621 22.56 351.621 21.36C351.621 20.4267 351.341 19.6667 350.781 19.08C350.248 18.4933 349.568 18.04 348.741 17.72C347.941 17.4 346.821 17.0533 345.381 16.68C343.568 16.2 342.088 15.72 340.941 15.24C339.821 14.7333 338.861 13.96 338.061 12.92C337.261 11.88 336.861 10.4933 336.861 8.76C336.861 7.16 337.261 5.76 338.061 4.56C338.861 3.36 339.981 2.44 341.421 1.8C342.861 1.16 344.528 0.839998 346.421 0.839998C349.114 0.839998 351.314 1.52 353.021 2.88C354.754 4.21333 355.714 6.05333 355.901 8.4H350.861C350.781 7.38667 350.301 6.52 349.421 5.8C348.541 5.08 347.381 4.72 345.941 4.72C344.634 4.72 343.568 5.05333 342.741 5.72C341.914 6.38667 341.501 7.34666 341.501 8.6C341.501 9.45333 341.754 10.16 342.261 10.72C342.794 11.2533 343.461 11.68 344.261 12C345.061 12.32 346.154 12.6667 347.541 13.04C349.381 13.5467 350.874 14.0533 352.021 14.56C353.194 15.0667 354.181 15.8533 354.981 16.92C355.808 17.96 356.221 19.36 356.221 21.12C356.221 22.5333 355.834 23.8667 355.061 25.12C354.314 26.3733 353.208 27.3867 351.741 28.16C350.301 28.9067 348.594 29.28 346.621 29.28Z" fill="black"/>
<path d="M44.73 15.04C44.73 12.32 45.3567 9.88 46.61 7.72C47.89 5.56 49.61 3.88 51.77 2.68C53.9567 1.45333 56.3433 0.839998 58.93 0.839998C61.89 0.839998 64.5167 1.57333 66.81 3.04C69.13 4.48 70.81 6.53333 71.85 9.2H66.37C65.65 7.73333 64.65 6.64 63.37 5.92C62.09 5.2 60.61 4.84 58.93 4.84C57.09 4.84 55.45 5.25333 54.01 6.08C52.57 6.90667 51.4367 8.09333 50.61 9.64C49.81 11.1867 49.41 12.9867 49.41 15.04C49.41 17.0933 49.81 18.8933 50.61 20.44C51.4367 21.9867 52.57 23.1867 54.01 24.04C55.45 24.8667 57.09 25.28 58.93 25.28C60.61 25.28 62.09 24.92 63.37 24.2C64.65 23.48 65.65 22.3867 66.37 20.92H71.85C70.81 23.5867 69.13 25.64 66.81 27.08C64.5167 28.52 61.89 29.24 58.93 29.24C56.3167 29.24 53.93 28.64 51.77 27.44C49.61 26.2133 47.89 24.52 46.61 22.36C45.3567 20.2 44.73 17.76 44.73 15.04Z" fill="#FDCAC9"/>
<path d="M255.551 1.2V21.24C255.551 23.72 254.791 25.68 253.271 27.12C251.777 28.56 249.804 29.28 247.351 29.28C244.897 29.28 242.911 28.56 241.391 27.12C239.897 25.68 239.151 23.72 239.151 21.24H243.751C243.777 22.4667 244.084 23.44 244.671 24.16C245.284 24.88 246.177 25.24 247.351 25.24C248.524 25.24 249.417 24.88 250.031 24.16C250.644 23.4133 250.951 22.44 250.951 21.24V1.2H255.551Z" fill="#CAEAE5"/>
</svg>
