<svg width="172" height="28" viewBox="0 0 172 28" fill="none" xmlns="http://www.w3.org/2000/svg">
<path d="M9.552 27.266C7.77867 27.266 6.18267 26.962 4.764 26.354C3.34533 25.7207 2.23067 24.834 1.42 23.694C0.609333 22.554 0.204 21.224 0.204 19.704H4.84C4.94133 20.844 5.38467 21.7813 6.17 22.516C6.98067 23.2507 8.108 23.618 9.552 23.618C11.0467 23.618 12.212 23.2633 13.048 22.554C13.884 21.8193 14.302 20.882 14.302 19.742C14.302 18.8553 14.036 18.1333 13.504 17.576C12.9973 17.0187 12.3513 16.588 11.566 16.284C10.806 15.98 9.742 15.6507 8.374 15.296C6.65133 14.84 5.24533 14.384 4.156 13.928C3.092 13.4467 2.18 12.712 1.42 11.724C0.66 10.736 0.28 9.41867 0.28 7.772C0.28 6.252 0.66 4.922 1.42 3.782C2.18 2.642 3.244 1.768 4.612 1.16C5.98 0.551998 7.56333 0.247998 9.362 0.247998C11.9207 0.247998 14.0107 0.893998 15.632 2.186C17.2787 3.45266 18.1907 5.20066 18.368 7.43H13.58C13.504 6.46733 13.048 5.644 12.212 4.96C11.376 4.276 10.274 3.934 8.906 3.934C7.66467 3.934 6.65133 4.25067 5.866 4.884C5.08067 5.51733 4.688 6.42933 4.688 7.62C4.688 8.43067 4.92867 9.102 5.41 9.634C5.91667 10.1407 6.55 10.546 7.31 10.85C8.07 11.154 9.10867 11.4833 10.426 11.838C12.174 12.3193 13.5927 12.8007 14.682 13.282C15.7967 13.7633 16.734 14.5107 17.494 15.524C18.2793 16.512 18.672 17.842 18.672 19.514C18.672 20.8567 18.3047 22.1233 17.57 23.314C16.8607 24.5047 15.8093 25.4673 14.416 26.202C13.048 26.9113 11.4267 27.266 9.552 27.266ZM28.1156 4.086V11.838H37.2356V15.372H28.1156V23.466H38.3756V27H23.7836V0.551998H38.3756V4.086H28.1156ZM57.4293 27L51.3493 16.436H48.0433V27H43.7113V0.589998H52.8313C54.858 0.589998 56.568 0.944665 57.9613 1.654C59.38 2.36333 60.4313 3.31333 61.1153 4.504C61.8247 5.69467 62.1793 7.02467 62.1793 8.494C62.1793 10.2167 61.6727 11.7873 60.6593 13.206C59.6713 14.5993 58.1387 15.5493 56.0613 16.056L62.5973 27H57.4293ZM48.0433 12.978H52.8313C54.4527 12.978 55.6687 12.5727 56.4793 11.762C57.3153 10.9513 57.7333 9.862 57.7333 8.494C57.7333 7.126 57.328 6.062 56.5173 5.302C55.7067 4.51666 54.478 4.124 52.8313 4.124H48.0433V12.978ZM90.4831 0.589998L80.5651 27H75.5491L65.5931 0.589998H70.2291L78.0571 22.554L85.9231 0.589998H90.4831Z" fill="#BEE3DC"/>
<path d="M98.4379 0.589998V27H94.1059V0.589998H98.4379ZM102.681 13.738C102.681 11.154 103.277 8.836 104.467 6.784C105.683 4.732 107.317 3.136 109.369 1.996C111.447 0.830665 113.714 0.247998 116.171 0.247998C118.983 0.247998 121.479 0.944665 123.657 2.338C125.861 3.706 127.457 5.65667 128.445 8.19H123.239C122.555 6.79667 121.605 5.758 120.389 5.074C119.173 4.39 117.767 4.048 116.171 4.048C114.423 4.048 112.865 4.44067 111.497 5.226C110.129 6.01133 109.053 7.13866 108.267 8.608C107.507 10.0773 107.127 11.7873 107.127 13.738C107.127 15.6887 107.507 17.3987 108.267 18.868C109.053 20.3373 110.129 21.4773 111.497 22.288C112.865 23.0733 114.423 23.466 116.171 23.466C117.767 23.466 119.173 23.124 120.389 22.44C121.605 21.756 122.555 20.7173 123.239 19.324H128.445C127.457 21.8573 125.861 23.808 123.657 25.176C121.479 26.544 118.983 27.228 116.171 27.228C113.689 27.228 111.421 26.658 109.369 25.518C107.317 24.3527 105.683 22.744 104.467 20.692C103.277 18.64 102.681 16.322 102.681 13.738ZM137.848 4.086V11.838H146.968V15.372H137.848V23.466H148.108V27H133.516V0.551998H148.108V4.086H137.848ZM162.146 27.266C160.372 27.266 158.776 26.962 157.358 26.354C155.939 25.7207 154.824 24.834 154.014 23.694C153.203 22.554 152.798 21.224 152.798 19.704H157.434C157.535 20.844 157.978 21.7813 158.764 22.516C159.574 23.2507 160.702 23.618 162.146 23.618C163.64 23.618 164.806 23.2633 165.642 22.554C166.478 21.8193 166.896 20.882 166.896 19.742C166.896 18.8553 166.63 18.1333 166.098 17.576C165.591 17.0187 164.945 16.588 164.16 16.284C163.4 15.98 162.336 15.6507 160.968 15.296C159.245 14.84 157.839 14.384 156.75 13.928C155.686 13.4467 154.774 12.712 154.014 11.724C153.254 10.736 152.874 9.41867 152.874 7.772C152.874 6.252 153.254 4.922 154.014 3.782C154.774 2.642 155.838 1.768 157.206 1.16C158.574 0.551998 160.157 0.247998 161.956 0.247998C164.514 0.247998 166.604 0.893998 168.226 2.186C169.872 3.45266 170.784 5.20066 170.962 7.43H166.174C166.098 6.46733 165.642 5.644 164.806 4.96C163.97 4.276 162.868 3.934 161.5 3.934C160.258 3.934 159.245 4.25067 158.46 4.884C157.674 5.51733 157.282 6.42933 157.282 7.62C157.282 8.43067 157.522 9.102 158.004 9.634C158.51 10.1407 159.144 10.546 159.904 10.85C160.664 11.154 161.702 11.4833 163.02 11.838C164.768 12.3193 166.186 12.8007 167.276 13.282C168.39 13.7633 169.328 14.5107 170.088 15.524C170.873 16.512 171.266 17.842 171.266 19.514C171.266 20.8567 170.898 22.1233 170.164 23.314C169.454 24.5047 168.403 25.4673 167.01 26.202C165.642 26.9113 164.02 27.266 162.146 27.266Z" fill="#F9BCB9"/>
</svg>
