<svg width="230" height="230" viewBox="0 0 230 230" fill="none" xmlns="http://www.w3.org/2000/svg">
<path d="M63.0967 127.367H58.4797L50.7577 115.676V127.367H46.1407V108.413H50.7577L58.4797 120.158V108.413H63.0967V127.367ZM73.3014 127.583C71.8254 127.583 70.4934 127.268 69.3054 126.638C68.1354 126.008 67.2084 125.108 66.5244 123.938C65.8584 122.768 65.5254 121.4 65.5254 119.834C65.5254 118.286 65.8674 116.927 66.5514 115.757C67.2354 114.569 68.1714 113.66 69.3594 113.03C70.5474 112.4 71.8794 112.085 73.3554 112.085C74.8314 112.085 76.1634 112.4 77.3514 113.03C78.5394 113.66 79.4754 114.569 80.1594 115.757C80.8434 116.927 81.1854 118.286 81.1854 119.834C81.1854 121.382 80.8344 122.75 80.1324 123.938C79.4484 125.108 78.5034 126.008 77.2974 126.638C76.1094 127.268 74.7774 127.583 73.3014 127.583ZM73.3014 123.587C74.1834 123.587 74.9304 123.263 75.5424 122.615C76.1724 121.967 76.4874 121.04 76.4874 119.834C76.4874 118.628 76.1814 117.701 75.5694 117.053C74.9754 116.405 74.2374 116.081 73.3554 116.081C72.4554 116.081 71.7084 116.405 71.1144 117.053C70.5204 117.683 70.2234 118.61 70.2234 119.834C70.2234 121.04 70.5114 121.967 71.0874 122.615C71.6814 123.263 72.4194 123.587 73.3014 123.587ZM88.2518 114.812C88.7918 113.984 89.4668 113.336 90.2768 112.868C91.0868 112.382 91.9868 112.139 92.9768 112.139V117.026H91.7078C90.5558 117.026 89.6918 117.278 89.1158 117.782C88.5398 118.268 88.2518 119.132 88.2518 120.374V127.367H83.6348V112.301H88.2518V114.812Z" fill="#BFE4DD"/>
<path d="M56.2387 168.367L51.9187 160.861H49.5697V168.367H46.4917V149.602H52.9717C54.4117 149.602 55.6267 149.854 56.6167 150.358C57.6247 150.862 58.3717 151.537 58.8577 152.383C59.3617 153.229 59.6137 154.174 59.6137 155.218C59.6137 156.442 59.2537 157.558 58.5337 158.566C57.8317 159.556 56.7427 160.231 55.2667 160.591L59.9107 168.367H56.2387ZM49.5697 158.404H52.9717C54.1237 158.404 54.9877 158.116 55.5637 157.54C56.1577 156.964 56.4547 156.19 56.4547 155.218C56.4547 154.246 56.1667 153.49 55.5907 152.95C55.0147 152.392 54.1417 152.113 52.9717 152.113H49.5697V158.404ZM77.1862 160.564C77.1862 161.122 77.1502 161.626 77.0782 162.076H65.7112C65.8012 163.264 66.2422 164.218 67.0342 164.938C67.8262 165.658 68.7982 166.018 69.9502 166.018C71.6062 166.018 72.7762 165.325 73.4602 163.939H76.7812C76.3312 165.307 75.5122 166.432 74.3242 167.314C73.1542 168.178 71.6962 168.61 69.9502 168.61C68.5282 168.61 67.2502 168.295 66.1162 167.665C65.0002 167.017 64.1182 166.117 63.4702 164.965C62.8402 163.795 62.5252 162.445 62.5252 160.915C62.5252 159.385 62.8312 158.044 63.4432 156.892C64.0732 155.722 64.9462 154.822 66.0622 154.192C67.1962 153.562 68.4922 153.247 69.9502 153.247C71.3542 153.247 72.6052 153.553 73.7032 154.165C74.8012 154.777 75.6562 155.641 76.2682 156.757C76.8802 157.855 77.1862 159.124 77.1862 160.564ZM73.9732 159.592C73.9552 158.458 73.5502 157.549 72.7582 156.865C71.9662 156.181 70.9852 155.839 69.8152 155.839C68.7532 155.839 67.8442 156.181 67.0882 156.865C66.3322 157.531 65.8822 158.44 65.7382 159.592H73.9732ZM79.1893 160.915C79.1893 159.385 79.4953 158.044 80.1073 156.892C80.7373 155.722 81.6013 154.822 82.6993 154.192C83.7973 153.562 85.0573 153.247 86.4793 153.247C88.2793 153.247 89.7643 153.679 90.9343 154.543C92.1223 155.389 92.9233 156.604 93.3373 158.188H90.0163C89.7463 157.45 89.3143 156.874 88.7203 156.46C88.1263 156.046 87.3793 155.839 86.4793 155.839C85.2193 155.839 84.2113 156.289 83.4553 157.189C82.7173 158.071 82.3483 159.313 82.3483 160.915C82.3483 162.517 82.7173 163.768 83.4553 164.668C84.2113 165.568 85.2193 166.018 86.4793 166.018C88.2613 166.018 89.4403 165.235 90.0163 163.669H93.3373C92.9053 165.181 92.0953 166.387 90.9073 167.287C89.7193 168.169 88.2433 168.61 86.4793 168.61C85.0573 168.61 83.7973 168.295 82.6993 167.665C81.6013 167.017 80.7373 166.117 80.1073 164.965C79.4953 163.795 79.1893 162.445 79.1893 160.915ZM102.858 168.61C101.454 168.61 100.185 168.295 99.0508 167.665C97.9168 167.017 97.0258 166.117 96.3778 164.965C95.7298 163.795 95.4058 162.445 95.4058 160.915C95.4058 159.403 95.7388 158.062 96.4048 156.892C97.0708 155.722 97.9798 154.822 99.1318 154.192C100.284 153.562 101.571 153.247 102.993 153.247C104.415 153.247 105.702 153.562 106.854 154.192C108.006 154.822 108.915 155.722 109.581 156.892C110.247 158.062 110.58 159.403 110.58 160.915C110.58 162.427 110.238 163.768 109.554 164.938C108.87 166.108 107.934 167.017 106.746 167.665C105.576 168.295 104.28 168.61 102.858 168.61ZM102.858 165.937C103.65 165.937 104.388 165.748 105.072 165.37C105.774 164.992 106.341 164.425 106.773 163.669C107.205 162.913 107.421 161.995 107.421 160.915C107.421 159.835 107.214 158.926 106.8 158.188C106.386 157.432 105.837 156.865 105.153 156.487C104.469 156.109 103.731 155.92 102.939 155.92C102.147 155.92 101.409 156.109 100.725 156.487C100.059 156.865 99.5278 157.432 99.1318 158.188C98.7358 158.926 98.5378 159.835 98.5378 160.915C98.5378 162.517 98.9428 163.759 99.7528 164.641C100.581 165.505 101.616 165.937 102.858 165.937ZM116.701 155.65C117.151 154.894 117.745 154.309 118.483 153.895C119.239 153.463 120.13 153.247 121.156 153.247V156.433H120.373C119.167 156.433 118.249 156.739 117.619 157.351C117.007 157.963 116.701 159.025 116.701 160.537V168.367H113.623V153.49H116.701V155.65ZM122.959 160.861C122.959 159.367 123.265 158.044 123.877 156.892C124.507 155.74 125.353 154.849 126.415 154.219C127.495 153.571 128.692 153.247 130.006 153.247C130.978 153.247 131.932 153.463 132.868 153.895C133.822 154.309 134.578 154.867 135.136 155.569V148.387H138.241V168.367H135.136V166.126C134.632 166.846 133.93 167.44 133.03 167.908C132.148 168.376 131.131 168.61 129.979 168.61C128.683 168.61 127.495 168.286 126.415 167.638C125.353 166.972 124.507 166.054 123.877 164.884C123.265 163.696 122.959 162.355 122.959 160.861ZM135.136 160.915C135.136 159.889 134.92 158.998 134.488 158.242C134.074 157.486 133.525 156.91 132.841 156.514C132.157 156.118 131.419 155.92 130.627 155.92C129.835 155.92 129.097 156.118 128.413 156.514C127.729 156.892 127.171 157.459 126.739 158.215C126.325 158.953 126.118 159.835 126.118 160.861C126.118 161.887 126.325 162.787 126.739 163.561C127.171 164.335 127.729 164.929 128.413 165.343C129.115 165.739 129.853 165.937 130.627 165.937C131.419 165.937 132.157 165.739 132.841 165.343C133.525 164.947 134.074 164.371 134.488 163.615C134.92 162.841 135.136 161.941 135.136 160.915ZM147.684 168.61C146.514 168.61 145.461 168.403 144.525 167.989C143.607 167.557 142.878 166.981 142.338 166.261C141.798 165.523 141.51 164.704 141.474 163.804H144.66C144.714 164.434 145.011 164.965 145.551 165.397C146.109 165.811 146.802 166.018 147.63 166.018C148.494 166.018 149.16 165.856 149.628 165.532C150.114 165.19 150.357 164.758 150.357 164.236C150.357 163.678 150.087 163.264 149.547 162.994C149.025 162.724 148.188 162.427 147.036 162.103C145.92 161.797 145.011 161.5 144.309 161.212C143.607 160.924 142.995 160.483 142.473 159.889C141.969 159.295 141.717 158.512 141.717 157.54C141.717 156.748 141.951 156.028 142.419 155.38C142.887 154.714 143.553 154.192 144.417 153.814C145.299 153.436 146.307 153.247 147.441 153.247C149.133 153.247 150.492 153.679 151.518 154.543C152.562 155.389 153.12 156.55 153.192 158.026H150.114C150.06 157.36 149.79 156.829 149.304 156.433C148.818 156.037 148.161 155.839 147.333 155.839C146.523 155.839 145.902 155.992 145.47 156.298C145.038 156.604 144.822 157.009 144.822 157.513C144.822 157.909 144.966 158.242 145.254 158.512C145.542 158.782 145.893 158.998 146.307 159.16C146.721 159.304 147.333 159.493 148.143 159.727C149.223 160.015 150.105 160.312 150.789 160.618C151.491 160.906 152.094 161.338 152.598 161.914C153.102 162.49 153.363 163.255 153.381 164.209C153.381 165.055 153.147 165.811 152.679 166.477C152.211 167.143 151.545 167.665 150.681 168.043C149.835 168.421 148.836 168.61 147.684 168.61Z" fill="black"/>
<path d="M230 115C230 137.745 223.255 159.979 210.619 178.891C197.983 197.802 180.022 212.542 159.009 221.246C137.995 229.95 114.872 232.228 92.5646 227.79C70.2568 223.353 49.7658 212.4 33.6827 196.317C17.5997 180.234 6.64699 159.743 2.20969 137.435C-2.22761 115.128 0.0497761 92.0049 8.75385 70.9914C17.4579 49.9779 32.1978 32.0174 51.1094 19.381C70.0211 6.74463 92.2551 -2.7123e-07 115 0V20.713C96.3518 20.713 78.1224 26.2429 62.617 36.6032C47.1115 46.9636 35.0265 61.6892 27.8902 78.9179C20.7538 96.1466 18.8866 115.105 22.5247 133.394C26.1628 151.684 35.1428 168.485 48.329 181.671C61.5153 194.857 78.3156 203.837 96.6055 207.475C114.895 211.113 133.853 209.246 151.082 202.11C168.311 194.973 183.036 182.888 193.397 167.383C203.757 151.878 209.287 133.648 209.287 115H230Z" fill="#C4C4C4"/>
</svg>
